<mxfile host="Electron" modified="2024-05-23T15:27:42.147Z" agent="Mozilla/5.0 (Windows NT 10.0; Win64; x64) AppleWebKit/537.36 (KHTML, like Gecko) draw.io/23.1.5 Chrome/120.0.6099.109 Electron/28.1.0 Safari/537.36" etag="3J7b2fYJ7bz-6M09QLw5" version="23.1.5" type="device">
  <diagram name="Strona-1" id="JFwGw05MScaQHE05DP6s">
    <mxGraphModel dx="1434" dy="957" grid="1" gridSize="10" guides="1" tooltips="1" connect="1" arrows="1" fold="1" page="1" pageScale="1" pageWidth="700" pageHeight="200" math="0" shadow="0">
      <root>
        <mxCell id="0" />
        <mxCell id="1" parent="0" />
        <mxCell id="lp2E6WePNSfjjuVMEgbw-20" value="&lt;br&gt;&lt;br&gt;buffer" style="rounded=0;whiteSpace=wrap;html=1;" parent="1" vertex="1">
          <mxGeometry x="140" y="30" width="150" height="80" as="geometry" />
        </mxCell>
        <mxCell id="aVyLQltE0AwnXHSQBUoR-7" value="irq" style="edgeStyle=orthogonalEdgeStyle;rounded=0;orthogonalLoop=1;jettySize=auto;html=1;exitX=0;exitY=0.5;exitDx=0;exitDy=0;" parent="1" edge="1">
          <mxGeometry x="0.3287" y="10" relative="1" as="geometry">
            <mxPoint x="10" y="79.41" as="targetPoint" />
            <mxPoint as="offset" />
            <mxPoint x="40" y="79.28500000000005" as="sourcePoint" />
          </mxGeometry>
        </mxCell>
        <mxCell id="lp2E6WePNSfjjuVMEgbw-18" style="edgeStyle=orthogonalEdgeStyle;rounded=0;orthogonalLoop=1;jettySize=auto;html=1;exitX=1;exitY=0.25;exitDx=0;exitDy=0;entryX=-0.008;entryY=0.126;entryDx=0;entryDy=0;entryPerimeter=0;" parent="1" source="aVyLQltE0AwnXHSQBUoR-8" target="lp2E6WePNSfjjuVMEgbw-13" edge="1">
          <mxGeometry relative="1" as="geometry">
            <mxPoint x="140" y="49.31034482758628" as="targetPoint" />
          </mxGeometry>
        </mxCell>
        <mxCell id="aVyLQltE0AwnXHSQBUoR-8" value="regs" style="rounded=0;whiteSpace=wrap;html=1;" parent="1" vertex="1">
          <mxGeometry x="40" y="39" width="80" height="40.25" as="geometry" />
        </mxCell>
        <mxCell id="lp2E6WePNSfjjuVMEgbw-1" value="" style="shape=flexArrow;endArrow=classic;html=1;rounded=0;" parent="1" edge="1">
          <mxGeometry width="50" height="50" relative="1" as="geometry">
            <mxPoint y="59" as="sourcePoint" />
            <mxPoint x="40" y="59" as="targetPoint" />
          </mxGeometry>
        </mxCell>
        <mxCell id="lp2E6WePNSfjjuVMEgbw-6" style="edgeStyle=orthogonalEdgeStyle;rounded=0;orthogonalLoop=1;jettySize=auto;html=1;exitX=1;exitY=0.5;exitDx=0;exitDy=0;entryX=0.25;entryY=1;entryDx=0;entryDy=0;" parent="1" source="lp2E6WePNSfjjuVMEgbw-2" target="lp2E6WePNSfjjuVMEgbw-3" edge="1">
          <mxGeometry relative="1" as="geometry" />
        </mxCell>
        <mxCell id="lp2E6WePNSfjjuVMEgbw-2" value="divider" style="rounded=0;whiteSpace=wrap;html=1;" parent="1" vertex="1">
          <mxGeometry x="430" y="140" width="80" height="30" as="geometry" />
        </mxCell>
        <mxCell id="lp2E6WePNSfjjuVMEgbw-5" value="Stream" style="edgeStyle=orthogonalEdgeStyle;rounded=0;orthogonalLoop=1;jettySize=auto;html=1;exitX=0;exitY=0.5;exitDx=0;exitDy=0;strokeWidth=4;" parent="1" edge="1">
          <mxGeometry x="-0.0532" y="-40" relative="1" as="geometry">
            <mxPoint x="490" y="60" as="targetPoint" />
            <mxPoint x="530" y="59.74000000000001" as="sourcePoint" />
            <mxPoint as="offset" />
          </mxGeometry>
        </mxCell>
        <mxCell id="lp2E6WePNSfjjuVMEgbw-9" value="" style="edgeStyle=orthogonalEdgeStyle;rounded=0;orthogonalLoop=1;jettySize=auto;html=1;" parent="1" source="lp2E6WePNSfjjuVMEgbw-3" target="lp2E6WePNSfjjuVMEgbw-7" edge="1">
          <mxGeometry relative="1" as="geometry" />
        </mxCell>
        <mxCell id="lp2E6WePNSfjjuVMEgbw-3" value="recv" style="rounded=0;whiteSpace=wrap;html=1;" parent="1" vertex="1">
          <mxGeometry x="530" y="30" width="100" height="60" as="geometry" />
        </mxCell>
        <mxCell id="lp2E6WePNSfjjuVMEgbw-4" value="I2C" style="shape=flexArrow;endArrow=classic;html=1;rounded=0;" parent="1" edge="1">
          <mxGeometry width="50" height="50" relative="1" as="geometry">
            <mxPoint x="680" y="59.75999999999999" as="sourcePoint" />
            <mxPoint x="630" y="59.75999999999999" as="targetPoint" />
          </mxGeometry>
        </mxCell>
        <mxCell id="lp2E6WePNSfjjuVMEgbw-7" value="filter (6 kHz)" style="rounded=0;whiteSpace=wrap;html=1;" parent="1" vertex="1">
          <mxGeometry x="410" y="30" width="80" height="60" as="geometry" />
        </mxCell>
        <mxCell id="lp2E6WePNSfjjuVMEgbw-14" style="edgeStyle=orthogonalEdgeStyle;rounded=0;orthogonalLoop=1;jettySize=auto;html=1;exitX=0;exitY=0.5;exitDx=0;exitDy=0;entryX=1;entryY=0.5;entryDx=0;entryDy=0;strokeWidth=4;" parent="1" source="lp2E6WePNSfjjuVMEgbw-8" target="lp2E6WePNSfjjuVMEgbw-13" edge="1">
          <mxGeometry relative="1" as="geometry" />
        </mxCell>
        <mxCell id="lp2E6WePNSfjjuVMEgbw-15" value="Stream" style="edgeLabel;html=1;align=center;verticalAlign=middle;resizable=0;points=[];" parent="lp2E6WePNSfjjuVMEgbw-14" vertex="1" connectable="0">
          <mxGeometry x="0.4057" y="-1" relative="1" as="geometry">
            <mxPoint x="4" y="-39" as="offset" />
          </mxGeometry>
        </mxCell>
        <mxCell id="lp2E6WePNSfjjuVMEgbw-8" value="collector" style="rounded=0;whiteSpace=wrap;html=1;" parent="1" vertex="1">
          <mxGeometry x="300" y="30" width="70" height="60" as="geometry" />
        </mxCell>
        <mxCell id="lp2E6WePNSfjjuVMEgbw-11" value="" style="edgeStyle=orthogonalEdgeStyle;rounded=0;orthogonalLoop=1;jettySize=auto;html=1;strokeWidth=4;" parent="1" edge="1">
          <mxGeometry relative="1" as="geometry">
            <mxPoint x="410" y="59.75" as="sourcePoint" />
            <mxPoint x="370" y="59.75" as="targetPoint" />
          </mxGeometry>
        </mxCell>
        <mxCell id="lp2E6WePNSfjjuVMEgbw-12" value="Stream" style="edgeLabel;html=1;align=center;verticalAlign=middle;resizable=0;points=[];" parent="lp2E6WePNSfjjuVMEgbw-11" vertex="1" connectable="0">
          <mxGeometry x="0.5472" y="-1" relative="1" as="geometry">
            <mxPoint x="10" y="-39" as="offset" />
          </mxGeometry>
        </mxCell>
        <mxCell id="lp2E6WePNSfjjuVMEgbw-13" value="FIFO (64 words)" style="rounded=0;whiteSpace=wrap;html=1;" parent="1" vertex="1">
          <mxGeometry x="150" y="45" width="130" height="30" as="geometry" />
        </mxCell>
        <mxCell id="lp2E6WePNSfjjuVMEgbw-19" style="edgeStyle=orthogonalEdgeStyle;rounded=0;orthogonalLoop=1;jettySize=auto;html=1;exitX=0;exitY=0.75;exitDx=0;exitDy=0;entryX=1;entryY=0.707;entryDx=0;entryDy=0;entryPerimeter=0;" parent="1" source="lp2E6WePNSfjjuVMEgbw-13" target="aVyLQltE0AwnXHSQBUoR-8" edge="1">
          <mxGeometry relative="1" as="geometry" />
        </mxCell>
      </root>
    </mxGraphModel>
  </diagram>
</mxfile>
